<?xml version="1.0" encoding="UTF-8"?>
<svg id="ly" data-name="layer" xmlns="http://www.w3.org/2000/svg" xmlns:xlink="http://www.w3.org/1999/xlink" viewBox="0 0 195.99 45.29">
  <defs>
    <style>
      .cls-1 {
        fill: url(#layer_2);
      }

      .cls-1, .cls-2, .cls-3, .cls-4, .cls-5 {
        stroke-width: 0px;
      }

      .cls-2 {
        fill: url(#layer_1);
      }

      .cls-3 {
        fill: url(#layer_3);
      }

      .cls-4 {
        fill: url(#layer_4);
      }

      .cls-5 {
        fill: url(#layer_5);
      }
    </style>
    <linearGradient id="layer_1" data-name="layer 32" x1="-1.09" y1="17.75" x2="191.66" y2="59.14" gradientUnits="userSpaceOnUse">
      <stop offset="0" stop-color="#6dc1ed"/>
      <stop offset=".04" stop-color="#5e9fd6"/>
      <stop offset=".08" stop-color="#507dc0"/>
      <stop offset=".13" stop-color="#4563ae"/>
      <stop offset=".18" stop-color="#3d50a2"/>
      <stop offset=".23" stop-color="#38449a"/>
      <stop offset=".28" stop-color="#374198"/>
      <stop offset=".67" stop-color="#f1942e"/>
      <stop offset=".89" stop-color="#ea652d"/>
      <stop offset="1" stop-color="#e5352b"/>
    </linearGradient>
    <linearGradient id="layer_3" data-name="layer 13" x1=".33" y1="11.14" x2="193.08" y2="52.52" gradientUnits="userSpaceOnUse">
      <stop offset="0" stop-color="#fff21f"/>
      <stop offset="0" stop-color="#f1e627"/>
      <stop offset=".05" stop-color="#c0bd46"/>
      <stop offset=".08" stop-color="#969a61"/>
      <stop offset=".12" stop-color="#737d77"/>
      <stop offset=".16" stop-color="#596788"/>
      <stop offset=".2" stop-color="#465794"/>
      <stop offset=".24" stop-color="#3a4e9b"/>
      <stop offset=".28" stop-color="#374b9e"/>
      <stop offset=".67" stop-color="#663b93"/>
      <stop offset=".89" stop-color="#ea652d"/>
      <stop offset="1" stop-color="#e5352b"/>
    </linearGradient>
    <linearGradient id="layer_2" data-name="layer 27" x1="3.48" y1="-3.52" x2="196.23" y2="37.86" gradientUnits="userSpaceOnUse">
      <stop offset="0" stop-color="#fff21f"/>
      <stop offset=".02" stop-color="#dbe03a"/>
      <stop offset=".06" stop-color="#aac85f"/>
      <stop offset=".09" stop-color="#80b480"/>
      <stop offset=".13" stop-color="#5da39a"/>
      <stop offset=".17" stop-color="#4396ae"/>
      <stop offset=".2" stop-color="#308dbd"/>
      <stop offset=".24" stop-color="#2487c6"/>
      <stop offset=".28" stop-color="#2186c9"/>
      <stop offset=".67" stop-color="#814798"/>
      <stop offset=".89" stop-color="#e7275a"/>
      <stop offset="1" stop-color="#e5352b"/>
    </linearGradient>
    <linearGradient id="layer_4" data-name="layer 15" x1="3.22" y1="-2.35" x2="195.98" y2="39.04" gradientUnits="userSpaceOnUse">
      <stop offset="0" stop-color="#fff21f"/>
      <stop offset=".02" stop-color="#e3de30"/>
      <stop offset=".05" stop-color="#b2bd51"/>
      <stop offset=".09" stop-color="#889f6c"/>
      <stop offset=".13" stop-color="#658883"/>
      <stop offset=".16" stop-color="#4b7594"/>
      <stop offset=".2" stop-color="#3868a1"/>
      <stop offset=".24" stop-color="#2c60a8"/>
      <stop offset=".28" stop-color="#295eab"/>
      <stop offset=".67" stop-color="#f1942e"/>
      <stop offset=".89" stop-color="#ea652d"/>
      <stop offset="1" stop-color="#e5352b"/>
    </linearGradient>
    <linearGradient id="layer_5" data-name="layer 10" x1="4.51" y1="-8.33" x2="197.26" y2="33.05" gradientUnits="userSpaceOnUse">
      <stop offset="0" stop-color="#fff21f"/>
      <stop offset=".01" stop-color="#feee1c"/>
      <stop offset=".1" stop-color="#fddc0c"/>
      <stop offset=".19" stop-color="#fcd003"/>
      <stop offset=".28" stop-color="#fccd00"/>
      <stop offset=".67" stop-color="#f1942e"/>
      <stop offset=".89" stop-color="#ea652d"/>
      <stop offset="1" stop-color="#e5352b"/>
    </linearGradient>
  </defs>
  <g id="ly-2" data-name="Layer">
    <g>
      <path class="cls-2" d="m6.87,2.13c3.79,0,6.86,3.07,6.86,6.86v17.57c0,6.71,3.22,8.93,7.74,8.93,4.74,0,7.23-2.46,7.23-8.93V8.99c0-3.79,3.07-6.86,6.86-6.86h0c3.79,0,6.86,3.07,6.86,6.86v17.63c0,12.26-6.82,18.67-21.31,18.67S0,39.22,0,26.61V8.99C0,5.2,3.07,2.13,6.86,2.13h0Z"/>
      <path class="cls-3" d="m49.39,21.48c6.12-8.61,18.12-9.45,23-9.45h20.33q12.14,0,12.14,13.18v6.03c0,7.23-5.86,13.09-13.09,13.09h0v-18.4c0-2.39-.67-4.95-3.77-4.95-2.71,0-4.23,1.71-4.23,5.79v10.97c0,3.64-2.95,6.59-6.59,6.59h0c-3.64,0-6.59-2.95-6.59-6.59v-12.04c0-2.27-.66-4.82-3.79-4.82-2.9,0-4.25,1.97-4.25,5.83v17.62h-.59c-10.48,0-18.04-10.63-13.98-20.29.37-.89.84-1.75,1.41-2.55Z"/>
      <path class="cls-1" d="m116.65,0h4.81c2.35,0,4.26,1.91,4.26,4.26h0c0,2.35-1.91,4.26-4.26,4.26h-4.81c-2.35,0-4.26-1.91-4.26-4.26h0C112.39,1.91,114.3,0,116.65,0Zm2.41,12.87h0c3.68,0,6.67,2.99,6.67,6.67v24.79s0,0,0,0c-7.36,0-13.33-5.97-13.33-13.33v-11.45c0-3.68,2.99-6.67,6.67-6.67Z"/>
      <path class="cls-4" d="m133.13,21.92c0-3.01,0-6.46-.06-9.05h12.97c.2,1.25.36,4.49.36,6,1.45-3.35,4.58-6.91,11.46-6.8v11.58c-7.25-.23-11.39,1.75-11.39,10.36h0c0,5.7-4.62,10.32-10.32,10.32h-3.01v-22.41Z"/>
      <path class="cls-5" d="m195.69,34.46c0,4.72.22,9.27.3,9.87h0c-3.45-4.11-9.28-5.18-14.01-2.65-3.43,1.83-7.23,3.49-9.72,3.49-8,0-12.07-4.63-12.07-10.2,0-7.92,6.82-10.65,17.1-10.65,2.27,0,4.5,0,5.67.02v-1.03c0-2.15-.83-3.7-4.32-3.7-1.53,0-2.51.3-3.13.77-1.77,1.32-3.94,2-6.16,2h-7.42c.2-3.86,2.88-10.35,16.7-10.35,14.86,0,17.06,6.56,17.06,11.82v10.61Zm-12.74-3.46c-.58-.04-2.21-.06-4.79-.06-3.78,0-5.31,1.13-5.31,3.11,0,1.67,1.31,2.9,3.94,2.9,3.85,0,6.17-5.95,6.17-5.95Z"/>
    </g>
  </g>
</svg>